<?xml version="1.0" encoding="UTF-8" standalone="no"?>
<!DOCTYPE svg  PUBLIC '-//W3C//DTD SVG 1.1//EN'  'http://www.w3.org/Graphics/SVG/1.1/DTD/svg11.dtd'>
<svg version="1.1" xmlns="http://www.w3.org/2000/svg">
<defs>
<font id="adineuePROCond-Light" horiz-adv-x="308">
<font-face bbox="-13 -206 493 905" font-weight="300" unicode-range="U+0020-F8FF" units-per-em="1000" underline-thickness="40" descent="-200" cap-height="685" panose-1="2 11 3 3 2 2 1 6 0 4" ascent="800" font-family="adineue PRO Cond Light" underline-position="-120" x-height="499"/>
<missing-glyph/>
<glyph unicode=" " glyph-name="space" horiz-adv-x="104"/>
<glyph d="M67 0h-39v53h39v-53zM67 685v-512h-39v512h39z" unicode="!" glyph-name="exclam" horiz-adv-x="95"/>
<glyph d="M19 549l-5 136h41l-5 -136h-31zM118 549h-31l-4 136h41z" unicode='&quot;' glyph-name="quotedbl" horiz-adv-x="138"/>
<glyph d="M169 0l8 184h-79l-8 -184h-38l8 184h-55v40h57l10 232h-54v40h56l8 189h37l-8 -189h80l8 189h38l-8 -189h59v-40h-61l-10 -232h58v-40h-59l-8 -184h-39zM179 224l10 232h-80l-10 -232h80z" unicode="#" glyph-name="numbersign" horiz-adv-x="292"/>
<glyph d="M148 -91h-34v79q-108 14 -108 179v5h40v-5q0 -123 68 -137v302q-96 56 -96 190q0 71 27.5 109.5t68.5 45.5v90h34v-90q94 -14 94 -162v-7h-40v7q0 105 -54 120v-270q58 -34 83 -78.5t25 -121.5q0 -165 -108 -177v-79zM215 166q0 97 -67 145v-281q67 14 67 136zM59 524 q0 -90 55 -136v248q-55 -13 -55 -112z" unicode="$" glyph-name="dollar" horiz-adv-x="265"/>
<glyph d="M353 28q17 0 28 13t11 37v216q0 25 -11 38.5t-28 13.5q-18 0 -29.5 -13.5t-11.5 -38.5v-216q0 -24 11.5 -37t29.5 -13zM353 377q32 0 52 -22t20 -63v-211q0 -40 -20.5 -62t-51.5 -22q-33 0 -53.5 21.5t-20.5 62.5v211q0 41 20.5 63t53.5 22zM86 339q17 0 28 13t11 37v216 q0 25 -11 38.5t-28 13.5q-18 0 -29.5 -13.5t-11.5 -38.5v-216q0 -24 11.5 -37t29.5 -13zM156 0h-37l162 685h37zM86 688q32 0 52 -22t20 -63v-211q0 -40 -20.5 -62t-51.5 -22q-33 0 -53.5 21.5t-20.5 62.5v211q0 41 20.5 63t53.5 22z" unicode="%" glyph-name="percent" horiz-adv-x="437"/>
<glyph d="M279 0l-38 71q-49 -76 -120 -76q-50 0 -82.5 37t-32.5 106v84q0 97 77 149q-33 73 -33 135v68q0 58 27 89.5t67 31.5q39 0 63.5 -28t24.5 -79v-78q0 -101 -93 -156l102 -191q33 99 33 253v25h41q0 -205 -50 -323l63 -118h-49zM123 36q56 0 97 76l-118 221 q-54 -39 -54 -107v-93q0 -47 21 -72t54 -25zM92 502q0 -52 28 -110q70 42 70 109v83q0 34 -13 52t-35 18t-36 -18.5t-14 -51.5v-82z" unicode="&amp;" glyph-name="ampersand" horiz-adv-x="340"/>
<glyph d="M50 549h-32l-4 136h41z" unicode="&apos;" glyph-name="quotesingle" horiz-adv-x="69"/>
<glyph d="M58 265q0 -250 69 -406l-33 -15q-76 158 -76 421q0 258 75 422l34 -16q-69 -156 -69 -406z" unicode="(" glyph-name="parenleft" horiz-adv-x="142"/>
<glyph d="M84 265q0 250 -69 406l33 15q76 -158 76 -421q0 -258 -75 -422l-34 16q69 156 69 406z" unicode=")" glyph-name="parenright" horiz-adv-x="142"/>
<glyph d="M126 591l60 51l19 -25l-69 -58l69 -58l-19 -25l-60 51v-92h-29v91l-60 -50l-19 25l69 58l-69 58l19 25l60 -50v93h29v-94z" unicode="*" glyph-name="asterisk" horiz-adv-x="223"/>
<glyph d="M128 306h83v-40h-83v-110h-38v110h-81v40h81v108h38v-108z" unicode="+" glyph-name="plus" horiz-adv-x="219"/>
<glyph d="M55 3l-19 -74h-25l18 71h-15v53h41v-50z" unicode="," glyph-name="comma" horiz-adv-x="69"/>
<glyph d="M159 266h-145v41h145v-41z" unicode="-" glyph-name="hyphen" horiz-adv-x="173"/>
<glyph d="M55 0h-41v53h41v-53z" unicode="." glyph-name="period" horiz-adv-x="69"/>
<glyph d="M49 0h-36l99 684h36z" unicode="/" glyph-name="slash" horiz-adv-x="160"/>
<glyph d="M152 37q36 0 58 27.5t22 78.5v400q0 51 -22 78.5t-58 27.5q-38 0 -61.5 -27.5t-23.5 -78.5v-400q0 -51 23.5 -78.5t61.5 -27.5zM150 690q54 0 89 -39t35 -113v-389q0 -75 -35 -114t-89 -39q-55 0 -90 39.5t-35 113.5v389q0 73 35 112.5t90 39.5z" unicode="0" glyph-name="zero" horiz-adv-x="299"/>
<glyph d="M88 0h-42v645h-41v40h83v-685z" unicode="1" glyph-name="one" horiz-adv-x="125"/>
<glyph d="M254 0h-231v38l129 284q58 127 58 207q0 58 -20 89t-53 31q-79 0 -79 -138v-6h-42v6q0 93 33.5 136t88.5 43q52 0 83 -40.5t31 -120.5q0 -83 -60 -223l-122 -266h184v-40z" unicode="2" glyph-name="two" horiz-adv-x="275"/>
<glyph d="M137 -4q-125 0 -125 173v16h42v-16q0 -74 22.5 -103t62.5 -29q36 0 58 28.5t22 82.5v132q0 53 -22 82t-58 29t-53 -29l-30 21l134 261h-168v41h219v-32l-112 -222q12 2 20 2q49 0 80.5 -40.5t31.5 -117.5v-121q0 -77 -35 -117.5t-89 -40.5z" unicode="3" glyph-name="three" horiz-adv-x="281"/>
<glyph d="M48 205h128v363zM218 205h41v-40h-41v-165h-42v165h-168v40l170 481h40v-481z" unicode="4" glyph-name="four" horiz-adv-x="275"/>
<glyph d="M137 -4q-125 0 -125 173v16h42v-16q0 -74 22.5 -103t62.5 -29q36 0 58 28.5t22 82.5v145q0 53 -22 82t-58 29q-29 0 -48.5 -18.5t-26.5 -49.5h-42l2 349h210v-41h-168l-1 -238q30 39 81 39q50 0 82.5 -40.5t32.5 -117.5v-133q0 -77 -35 -117.5t-89 -40.5z" unicode="5" glyph-name="five" horiz-adv-x="281"/>
<glyph d="M147 37q36 0 58 25t22 72v167q0 53 -22 80t-58 27q-85 0 -85 -120v-154q0 -47 23.5 -72t61.5 -25zM145 -4q-55 0 -90 37t-35 107v138q0 64 23 131l94 276h46l-90 -256q26 19 56 19q54 0 87 -36.5t33 -105.5v-166q0 -71 -35 -107.5t-89 -36.5z" unicode="6" glyph-name="six" horiz-adv-x="290"/>
<glyph d="M256 649l-146 -649h-45l151 643h-189v42h229v-36z" unicode="7" glyph-name="seven" horiz-adv-x="275"/>
<glyph d="M146 37q36 0 57.5 26t21.5 75v110q0 49 -21.5 75t-57.5 26q-37 0 -60.5 -26t-23.5 -75v-110q0 -49 23 -75t61 -26zM146 649q-32 0 -52 -24.5t-20 -70.5v-69q0 -46 20 -70.5t52 -24.5q30 0 48.5 24.5t18.5 70.5v69q0 46 -18.5 70.5t-48.5 24.5zM144 -4q-55 0 -89.5 38 t-34.5 110v98q0 96 64 129q-52 34 -52 121v57q0 68 31.5 104.5t80.5 36.5t80 -36t31 -105v-57q0 -85 -51 -121q63 -34 63 -129v-98q0 -73 -34.5 -110.5t-88.5 -37.5z" unicode="8" glyph-name="eight" horiz-adv-x="287"/>
<glyph d="M142 648q-36 0 -58 -25t-22 -72v-167q0 -53 22 -80t58 -27q85 0 85 120v154q0 47 -23.5 72t-61.5 25zM152 0h-46l90 256q-26 -19 -56 -19q-54 0 -87 36.5t-33 105.5v166q0 71 35 107.5t89 36.5q55 0 90 -37t35 -107v-138q0 -64 -23 -131z" unicode="9" glyph-name="nine" horiz-adv-x="290"/>
<glyph d="M55 0h-41v53h41v-53zM55 446h-41v53h41v-53z" unicode=":" glyph-name="colon" horiz-adv-x="69"/>
<glyph d="M55 3l-19 -74h-25l18 71h-15v53h41v-50zM55 446h-41v53h41v-53z" unicode=";" glyph-name="semicolon" horiz-adv-x="69"/>
<glyph d="M211 426l-172 -140l172 -140v-47l-202 163v48l202 164v-48z" unicode="&lt;" glyph-name="less" horiz-adv-x="219"/>
<glyph d="M211 190h-202v41h202v-41zM211 336h-202v40h202v-40z" unicode="=" glyph-name="equal" horiz-adv-x="219"/>
<glyph d="M211 310v-48l-202 -163v47l171 140l-171 140v48z" unicode="&gt;" glyph-name="greater" horiz-adv-x="219"/>
<glyph d="M142 0h-40v53h40v-53zM142 173h-40v162h22q36 0 58 25t22 72v122q0 45 -20 71t-54 26q-79 0 -79 -101v-24h-42v24q0 73 34 107.5t87 34.5q51 0 83.5 -36.5t32.5 -106.5v-111q0 -63 -28.5 -99.5t-75.5 -43.5v-122z" unicode="?" glyph-name="question" horiz-adv-x="267"/>
<glyph d="M202 133q57 0 57 90v109q0 89 -57 89q-56 0 -56 -84v-120q0 -84 56 -84zM204 -71q-80 0 -129 51.5t-49 149.5v299q0 96 49 147t129 51q79 0 128.5 -49t49.5 -141v-267q0 -32 -19.5 -50.5t-48.5 -18.5q-33 0 -52 33q-24 -40 -69 -40q-40 0 -61.5 31.5t-21.5 77.5v147 q0 45 21.5 76t61.5 31q46 0 65 -37v32h37v-288q0 -12 7 -20t16 -8q10 0 18.5 7.5t8.5 20.5v265q0 83 -38.5 123.5t-101.5 40.5q-65 0 -103.5 -41.5t-38.5 -129.5v-288q0 -89 38 -130t102 -41q87 0 133 50v-42q-40 -42 -132 -42z" unicode="@" glyph-name="at" horiz-adv-x="409"/>
<glyph d="M278 0l-34 179h-156l-34 -179h-44l134 685h45l134 -685h-45zM236 222l-70 371l-70 -371h140z" unicode="A" glyph-name="A" horiz-adv-x="333"/>
<glyph d="M163 326h-81v-282h80q97 0 97 123v42q0 117 -96 117zM143 641h-61v-269h59q99 0 99 120v31q0 118 -97 118zM38 0v685h104q64 0 102.5 -37.5t38.5 -116.5v-44q0 -95 -60 -132q78 -28 78 -137v-50q0 -83 -38 -125.5t-94 -42.5h-131z" unicode="B" glyph-name="B" horiz-adv-x="321"/>
<glyph d="M318 453h-44v61q0 68 -27 101.5t-72 33.5q-48 0 -76.5 -33.5t-28.5 -101.5v-340q0 -68 28.5 -102.5t74.5 -34.5t73.5 34.5t27.5 102.5v47h44v-51q0 -85 -40 -130.5t-104 -45.5q-66 0 -107 45t-41 131v349q0 84 41 128.5t107 44.5t105 -44t39 -129v-66z" unicode="C" glyph-name="C" horiz-adv-x="343"/>
<glyph d="M160 642h-78v-599h76q53 0 85.5 34t32.5 101v331q0 67 -32 100t-84 33zM38 0v685h121q73 0 117 -44t44 -128v-338q0 -86 -44 -130.5t-117 -44.5h-121z" unicode="D" glyph-name="D" horiz-adv-x="346"/>
<glyph d="M38 0v685h234v-43h-190v-274h177v-43h-177v-282h198v-43h-242z" unicode="E" glyph-name="E" horiz-adv-x="288"/>
<glyph d="M254 315h-172v-315h-44v685h235v-43h-191v-284h172v-43z" unicode="F" glyph-name="F" horiz-adv-x="278"/>
<glyph d="M328 170q0 -85 -41 -130.5t-108 -45.5q-69 0 -111 45t-42 131v349q0 84 42 128.5t111 44.5q66 0 107.5 -44t41.5 -127v-67h-44v62q0 67 -28.5 100t-75.5 33q-50 0 -80 -33.5t-30 -101.5v-340q0 -68 30 -102.5t78 -34.5t77 34.5t29 102.5v124h-107v43h151v-171z" unicode="G" glyph-name="G" horiz-adv-x="354"/>
<glyph d="M274 0v321h-192v-321h-44v685h44v-321h192v321h44v-685h-44z" unicode="H" glyph-name="H" horiz-adv-x="356"/>
<glyph d="M82 0h-44v685h44v-685z" unicode="I" glyph-name="I" horiz-adv-x="120"/>
<glyph d="M4 182h45v-15q0 -131 87 -131q40 0 64.5 31t24.5 95v523h44v-524q0 -80 -38.5 -124t-95.5 -44q-58 0 -95 42.5t-36 129.5v17z" unicode="J" glyph-name="J" horiz-adv-x="302"/>
<glyph d="M251 0l-170 322v-322h-44v685h44v-329l170 329h47l-179 -342l182 -343h-50z" unicode="K" glyph-name="K" horiz-adv-x="306"/>
<glyph d="M38 0v685h44v-642h188v-43h-232z" unicode="L" glyph-name="L" horiz-adv-x="281"/>
<glyph d="M201 0l-123 569v-569h-40v685h54l125 -580l125 580h52v-685h-40v565l-123 -565h-30z" unicode="M" glyph-name="M" horiz-adv-x="434"/>
<glyph d="M275 0l-196 572v-572h-41v685h47l188 -557v557h41v-685h-39z" unicode="N" glyph-name="N" horiz-adv-x="354"/>
<glyph d="M178 37q49 0 79.5 36t30.5 106v330q0 70 -29.5 105t-78.5 35q-50 0 -80 -34.5t-30 -105.5v-330q0 -71 30 -106.5t78 -35.5zM179 -6q-69 0 -111 46.5t-42 134.5v339q0 86 42 132t111 46q68 0 110.5 -46t42.5 -132v-339q0 -88 -42.5 -134.5t-110.5 -46.5z" unicode="O" glyph-name="O" horiz-adv-x="359"/>
<glyph d="M140 642h-58v-355h57q106 0 106 123v107q0 125 -105 125zM138 244h-56v-244h-44v685h102q70 0 109.5 -40.5t39.5 -121.5v-117q0 -162 -151 -162z" unicode="P" glyph-name="P" horiz-adv-x="307"/>
<glyph d="M183 37q36 0 63 18l-80 140l38 19l73 -127q21 37 21 92v330q0 70 -31 105t-82 35q-52 0 -83.5 -34.5t-31.5 -105.5v-330q0 -71 31 -106.5t82 -35.5zM301 -41l-33 57q-35 -22 -84 -22q-71 0 -114.5 46.5t-43.5 134.5v339q0 86 43.5 132t114.5 46q70 0 114 -46t44 -132 v-339q0 -84 -41 -131l38 -66z" unicode="Q" glyph-name="Q" horiz-adv-x="369"/>
<glyph d="M261 0l-178 274h-1v-274h-44v685h101q69 0 108 -39t39 -118v-97q0 -157 -149 -157h-4l181 -274h-53zM137 642h-55v-325h54q106 0 106 119v87q0 119 -105 119z" unicode="R" glyph-name="R" horiz-adv-x="315"/>
<glyph d="M280 539v-53h-43v47q0 116 -81 116q-36 0 -59 -29t-23 -83q0 -57 26 -92t81 -73q53 -36 84.5 -85t31.5 -128t-38 -122.5t-100 -43.5t-101.5 45.5t-39.5 131.5v48h43v-47q0 -136 99 -136q42 0 68 31t26 91q0 105 -98 174q-43 30 -67 54t-41 62.5t-17 87.5q0 74 36.5 115 t91.5 41q57 0 89 -38.5t32 -113.5z" unicode="S" glyph-name="S" horiz-adv-x="325"/>
<glyph d="M168 0h-43v642h-120v43h283v-43h-120v-642z" unicode="T" glyph-name="T" horiz-adv-x="293"/>
<glyph d="M77 685v-510q0 -70 28.5 -104.5t75.5 -34.5q48 0 77 34.5t29 104.5v510h44v-509q0 -90 -42.5 -136.5t-107.5 -46.5t-106.5 46.5t-41.5 136.5v509h44z" unicode="U" glyph-name="U" horiz-adv-x="364"/>
<glyph d="M189 0h-45l-134 685h45l112 -593l112 593h44z" unicode="V" glyph-name="V" horiz-adv-x="333"/>
<glyph d="M342 0l-87 591l-88 -591h-50l-102 685h44l83 -598l88 598h50l88 -605l82 605h43l-101 -685h-50z" unicode="W" glyph-name="W" horiz-adv-x="506"/>
<glyph d="M283 0l-115 308l-116 -308h-46l138 362l-123 323h48l101 -269l100 269h46l-123 -322l138 -363h-48z" unicode="X" glyph-name="X" horiz-adv-x="337"/>
<glyph d="M194 0h-44v306l-137 379h45l114 -318l114 318h44l-136 -376v-309z" unicode="Y" glyph-name="Y" horiz-adv-x="343"/>
<glyph d="M291 646l-236 -601h241v-45h-289v40l236 601h-220v44h268v-39z" unicode="Z" glyph-name="Z" horiz-adv-x="303"/>
<glyph d="M120 646h-59v-767h59v-39h-98v845h98v-39z" unicode="[" glyph-name="bracketleft" horiz-adv-x="132"/>
<glyph d="M148 0h-36l-99 685h36z" unicode="\" glyph-name="backslash" horiz-adv-x="160"/>
<glyph d="M71 646h-59v39h98v-845h-98v39h59v767z" unicode="]" glyph-name="bracketright" horiz-adv-x="132"/>
<glyph d="M211 97h-38l-63 312l-65 -312h-36l82 378h39z" unicode="^" glyph-name="asciicircum" horiz-adv-x="219"/>
<glyph d="M256 -123h-262v41h262v-41z" unicode="_" glyph-name="underscore" horiz-adv-x="251"/>
<glyph d="M150 624v-41l-107 51v46z" unicode="`" glyph-name="grave" horiz-adv-x="199"/>
<glyph d="M231 499h42v-499h-42v38q-26 -43 -89 -45q-56 1 -86.5 38.5t-30.5 95.5v246q0 59 30.5 96t86.5 37q62 0 89 -44v37zM148 34q40 0 61.5 29.5t21.5 84.5v204q0 55 -21.5 84.5t-61.5 29.5q-81 0 -81 -102v-228q0 -47 20.5 -74.5t60.5 -27.5z" unicode="a" glyph-name="a"/>
<glyph d="M160 34q81 1 81 107v218q0 107 -81 107q-40 0 -61.5 -29.5t-21.5 -84.5v-204q0 -112 83 -114zM77 685v-223q27 44 89 44q56 0 86.5 -37t30.5 -96v-246q0 -58 -30.5 -95.5t-86.5 -38.5q-63 2 -89 45v-38h-42v685h42z" unicode="b" glyph-name="b"/>
<glyph d="M223 183h42v-43q0 -71 -33 -107.5t-85 -36.5q-54 0 -88 36t-34 108v222q0 71 33.5 107.5t87.5 36.5t86.5 -36.5t32.5 -107.5v-54h-42v59q0 48 -21.5 73.5t-56.5 25.5t-56.5 -25.5t-21.5 -73.5v-233q0 -47 22 -72t57 -25t56 25.5t21 74.5v46z" unicode="c" glyph-name="c" horiz-adv-x="284"/>
<glyph d="M231 685h42v-685h-42v38q-26 -43 -89 -45q-56 1 -86.5 38.5t-30.5 95.5v246q0 59 30.5 96t86.5 37q62 0 89 -44v223zM148 34q83 2 83 114v204q0 55 -21.5 84.5t-61.5 29.5q-81 0 -81 -107v-218q0 -106 81 -107z" unicode="d" glyph-name="d"/>
<glyph d="M67 367v-76h156v76q0 47 -22 73t-57 26q-34 0 -55.5 -26t-21.5 -73zM265 132q0 -67 -33.5 -101.5t-86.5 -34.5t-86.5 37.5t-33.5 106.5v222q0 70 33.5 107t86.5 37q52 0 86 -37t34 -107v-112h-198v-116q0 -47 22.5 -72t57.5 -25t55.5 22.5t20.5 67.5v38h42v-33z" unicode="e" glyph-name="e" horiz-adv-x="284"/>
<glyph d="M172 642h-14q-57 0 -57 -77v-66h71v-40h-71v-459h-42v459h-46v40h46v66q0 60 27 90t68 30h18v-43z" unicode="f" glyph-name="f" horiz-adv-x="184"/>
<glyph d="M231 -44v105q-26 -43 -89 -45q-56 1 -86.5 38.5t-30.5 94.5v224q0 59 30.5 96t86.5 37q62 0 89 -44v37h42v-536q0 -79 -34 -116.5t-91 -37.5q-55 0 -89 34t-34 104v16h42v-21q0 -46 21.5 -69t58.5 -23t60.5 26.5t23.5 79.5zM148 57q83 2 83 114v181q0 55 -21.5 84.5 t-61.5 29.5q-81 0 -81 -107v-196q0 -105 81 -106z" unicode="g" glyph-name="g"/>
<glyph d="M241 0v359q0 107 -79 107q-39 0 -62 -29t-23 -81v-356h-42v685h42v-226q26 47 93 47q54 0 83.5 -38.5t29.5 -94.5v-373h-42z" unicode="h" glyph-name="h" horiz-adv-x="315"/>
<glyph d="M77 -1h-42v500h42v-500zM77 631h-42v53h42v-53z" unicode="i" glyph-name="i" horiz-adv-x="112"/>
<glyph d="M77 499v-535q0 -136 -90 -136v47q23 0 35.5 19t12.5 72v533h42zM77 633h-42v52h42v-52z" unicode="j" glyph-name="j" horiz-adv-x="112"/>
<glyph d="M217 0l-143 227v-227h-41v685h41v-411l140 225h45l-155 -247l160 -252h-47z" unicode="k" glyph-name="k" horiz-adv-x="263"/>
<glyph d="M77 0h-42v685h42v-685z" unicode="l" glyph-name="l" horiz-adv-x="112"/>
<glyph d="M77 356v-356h-42v499h42v-40q30 47 90 47q66 0 93 -64q28 64 102 64q51 0 79 -38t28 -95v-373h-42v359q0 107 -73 107q-38 0 -59.5 -29t-21.5 -81v-356h-42v359q0 107 -74 107q-37 0 -58.5 -29t-21.5 -81z" unicode="m" glyph-name="m" horiz-adv-x="501"/>
<glyph d="M241 0v359q0 107 -79 107q-39 0 -62 -29t-23 -81v-356h-42v499h42v-39q29 46 91 46q56 0 85.5 -38t29.5 -95v-373h-42z" unicode="n" glyph-name="n" horiz-adv-x="315"/>
<glyph d="M152 37q36 0 58 25t22 72v235q0 46 -22 71.5t-58 25.5q-37 0 -61 -25.5t-24 -71.5v-235q0 -47 23.5 -72t61.5 -25zM150 506q54 0 89 -36.5t35 -105.5v-224q0 -71 -35 -107.5t-89 -36.5q-55 0 -90 37t-35 107v224q0 68 35 105t90 37z" unicode="o" glyph-name="o" horiz-adv-x="299"/>
<glyph d="M77 499v-37q27 42 89 44q56 -1 86.5 -38t30.5 -95v-246q0 -59 -30.5 -96.5t-86.5 -37.5q-63 0 -89 45v-210h-42v671h42zM160 34q81 0 81 107v218q0 106 -81 107q-40 -1 -61.5 -30.5t-21.5 -84.5v-204q0 -55 21.5 -84t61.5 -29z" unicode="p" glyph-name="p"/>
<glyph d="M148 34q40 0 61.5 29t21.5 84v204q0 55 -21.5 84.5t-61.5 30.5q-81 -1 -81 -107v-218q0 -107 81 -107zM231 499h42v-671h-42v210q-26 -45 -89 -45q-56 0 -86.5 37.5t-30.5 96.5v246q0 58 30.5 95t86.5 38q62 -2 89 -44v37z" unicode="q" glyph-name="q"/>
<glyph d="M35 0v499h42v-81q1 4 3.5 10t11 21t19 27t29 21.5t38.5 9.5v-49q-45 0 -73 -50.5t-28 -133.5v-274h-42z" unicode="r" glyph-name="r" horiz-adv-x="186"/>
<glyph d="M230 376v-6h-41v6q0 90 -70 90q-30 0 -46 -21t-16 -54q0 -21 5.5 -37.5t20.5 -30.5t24 -20.5t31 -21.5q25 -16 38 -26t31 -29.5t26 -45t8 -58.5q0 -56 -30.5 -91t-82.5 -35q-54 0 -86.5 33t-32.5 103v9h41v-9q0 -96 76 -96q33 0 53 22t20 64q0 29 -13.5 53t-27 35 t-40.5 29q-54 36 -78 67t-24 84q0 55 30.5 85.5t75.5 30.5q51 0 79.5 -33t28.5 -97z" unicode="s" glyph-name="s" horiz-adv-x="248"/>
<glyph d="M177 45v-45h-28q-33 0 -62 30.5t-29 89.5v339h-46v40h46v145h42v-145h77v-40h-77v-338q0 -40 17 -58t40 -18h20z" unicode="t" glyph-name="t" horiz-adv-x="189"/>
<glyph d="M77 499v-358q0 -107 79 -107q40 0 62.5 28.5t22.5 81.5v355h42v-499h-42v39q-29 -46 -91 -46q-56 0 -85.5 38t-29.5 95v373h42z" unicode="u" glyph-name="u" horiz-adv-x="324"/>
<glyph d="M175 0h-51l-111 499h44l93 -442l93 442h43z" unicode="v" glyph-name="v" horiz-adv-x="297"/>
<glyph d="M278 0l-67 427l-66 -427h-46l-78 499h41l60 -420l66 420h48l66 -426l60 426h40l-79 -499h-45z" unicode="w" glyph-name="w" horiz-adv-x="422"/>
<glyph d="M221 0l-84 220l-84 -220h-43l104 262l-94 237h43l74 -196l74 196h43l-93 -237l103 -262h-43z" unicode="x" glyph-name="x" horiz-adv-x="275"/>
<glyph d="M289 499l-118 -514q-21 -93 -49 -125.5t-75 -32.5h-24v42h25q30 0 50.5 28.5t34.5 109.5l-125 492h43l104 -416l92 416h42z" unicode="y" glyph-name="y" horiz-adv-x="297"/>
<glyph d="M232 462l-167 -419h175v-43h-220v39l168 419h-162v41h206v-37z" unicode="z" glyph-name="z" horiz-adv-x="249"/>
<glyph d="M144 -160h-25q-39 1 -61.5 32t-22.5 85q0 51 18.5 123.5t18.5 102.5q0 33 -10.5 47t-35.5 14h-25v39h25q25 0 35.5 14.5t10.5 45.5t-18.5 103.5t-18.5 122.5q0 55 22.5 86t61.5 31h25v-38h-17q-25 0 -39 -20.5t-14 -57.5q0 -46 18.5 -114t18.5 -107q0 -28 -8.5 -49.5 t-16.5 -29.5l-9 -7q2 0 9.5 -7.5t16 -29t8.5 -49.5q0 -39 -18.5 -107t-18.5 -114q0 -36 14 -56.5t39 -21.5h17v-38z" unicode="{" glyph-name="braceleft" horiz-adv-x="157"/>
<glyph d="M74 -143h-39v828h39v-828z" unicode="|" glyph-name="bar" horiz-adv-x="109"/>
<glyph d="M38 -159h-25v38h17q25 0 39 20.5t14 57.5q0 45 -18.5 113t-18.5 108q0 28 8.5 49.5t17.5 28.5l8 8q-2 0 -9.5 7.5t-16 29t-8.5 49.5q0 39 18.5 107t18.5 114q0 36 -14 56.5t-39 21.5h-17v38h25q39 -1 61.5 -32t22.5 -85q0 -51 -18.5 -123.5t-18.5 -102.5q0 -33 10.5 -47 t35.5 -14h25v-39h-25q-25 0 -35.5 -14.5t-10.5 -45.5t18.5 -103.5t18.5 -122.5q0 -55 -22.5 -86t-61.5 -31z" unicode="}" glyph-name="braceright" horiz-adv-x="157"/>
<glyph d="M8 237v50q19 37 58 37q19 0 46.5 -18t42.5 -18q16 0 28 9t28 33v-51q-19 -37 -58 -37q-19 0 -46.5 18t-42.5 18q-16 0 -28 -9t-28 -32z" unicode="~" glyph-name="asciitilde" horiz-adv-x="219"/>
<glyph d="M67 512v-512h-39v512h39zM28 685h39v-53h-39v53z" unicode="¡" glyph-name="exclamdown" horiz-adv-x="95"/>
<glyph d="M281 152q0 -71 -31 -110t-80 -45v-89h-33v89q-53 5 -85 44t-32 111v244q0 73 32 112.5t85 44.5v90h33v-90q51 -6 81 -45.5t30 -111.5v-59h-42v65q0 46 -19 74.5t-50 34.5v-472q32 6 50.5 35t18.5 76v51h42v-49zM62 146q0 -46 20.5 -74.5t54.5 -33.5v474q-34 -5 -54.5 -33 t-20.5 -77v-256z" unicode="¢" glyph-name="cent" horiz-adv-x="297"/>
<glyph d="M274 35q-29 -42 -73 -42q-25 0 -63.5 26t-59.5 26q-15 0 -27.5 -7.5t-19.5 -15t-18 -22.5v49q19 30 48 37v212h-47v40h47v217q0 66 30.5 101.5t76.5 35.5q49 0 79.5 -33t30.5 -103v-29h-42v29q0 96 -68 96q-31 0 -47.5 -24.5t-16.5 -67.5v-222h94v-40h-94v-211 q16 -5 50 -27t54 -22q32 0 66 46v-49z" unicode="£" glyph-name="sterling" horiz-adv-x="282"/>
<glyph d="M284 154h-90v-154h-44v154h-92v40h92v95h-92v40h84l-129 356h45l114 -318l114 318h44l-129 -356h83v-40h-90v-95h90v-40z" unicode="¥" glyph-name="yen" horiz-adv-x="341"/>
<glyph d="M74 -143h-39v323h39v-323zM74 361h-39v324h39v-324z" unicode="¦" glyph-name="brokenbar" horiz-adv-x="109"/>
<glyph d="M158 -47q-54 0 -87.5 33t-33.5 103v9h41v-9q0 -53 23 -75t57 -22q33 0 53 20t20 57q0 50 -53 84q-8 5 -26 15.5t-22 12.5q-55 31 -79.5 59.5t-24.5 78.5q0 78 63 105q-37 35 -37 95q0 52 31 83.5t77 31.5q51 0 79.5 -33t28.5 -97v-6h-41v6q0 90 -70 90q-31 0 -47.5 -21 t-16.5 -54q0 -36 20.5 -56.5t63.5 -43.5q64 -37 84 -57q35 -37 35 -92q0 -74 -60 -104q38 -38 38 -97q0 -52 -31.5 -84t-84.5 -32zM150 223q38 -22 48 -28q55 13 55 75q0 21 -6.5 36.5t-25 30t-27 19.5t-37.5 21q-8 4 -33 19q-28 -4 -42.5 -25t-14.5 -51q0 -19 5.5 -33 t22 -27.5t23.5 -18t32 -18.5z" unicode="§" glyph-name="section" horiz-adv-x="322"/>
<glyph d="M80 638h-40v47h40v-47zM158 638h-39v47h39v-47z" unicode="¨" glyph-name="dieresis" horiz-adv-x="199"/>
<glyph d="M245 361h38v-27q0 -45 -22.5 -66t-56.5 -21q-35 0 -58 21t-23 66v137q0 45 23 66.5t58 21.5t57 -21.5t22 -66.5v-33h-38v31q0 56 -42 56t-42 -56v-132q0 -56 43 -56q41 0 41 57v23zM63 317q0 -87 38.5 -129t101.5 -42t101.5 42t38.5 129v171q0 89 -38 130t-102 41 t-102 -41t-38 -130v-171zM27 313v179q0 100 48 150.5t129 50.5q79 0 127 -50t48 -148v-182q0 -98 -48 -149.5t-127 -51.5q-80 0 -128.5 51.5t-48.5 149.5z" unicode="©" glyph-name="copyright" horiz-adv-x="406"/>
<glyph d="M159 684h27v-322h-27v24q-17 -27 -57 -29q-37 1 -56.5 25t-19.5 61v159q0 38 19.5 62t56.5 24q40 0 57 -29v25zM105 382q54 2 54 75v132q0 74 -54 74q-52 0 -52 -70v-141q0 -69 52 -70z" unicode="ª" glyph-name="ordfeminine" horiz-adv-x="212"/>
<glyph d="M52 286l65 -202h-39l-66 202l66 203h39zM130 286l66 -202h-39l-66 202l66 203h39z" unicode="«" glyph-name="guillemotleft" horiz-adv-x="213"/>
<glyph d="M157 245v294h39v-64l2.5 7.5t7 17t12 22t18 17t24.5 7.5v-43q-29 0 -46.5 -46.5t-17.5 -121.5v-90h-39zM63 317q0 -87 38.5 -129t101.5 -42t101.5 42t38.5 129v171q0 89 -38 130t-102 41t-102 -41t-38 -130v-171zM27 313v179q0 100 48 150.5t129 50.5q79 0 127 -50 t48 -148v-182q0 -98 -48 -149.5t-127 -51.5q-80 0 -128.5 51.5t-48.5 149.5z" unicode="®" glyph-name="registered" horiz-adv-x="406"/>
<glyph d="M167 615h-135v40h135v-40z" unicode="¯" glyph-name="macron" horiz-adv-x="199"/>
<glyph d="M111 424q26 0 42 18.5t16 52.5v91q0 34 -16 52.5t-42 18.5q-27 0 -44.5 -19t-17.5 -52v-91q0 -33 17.5 -52t44.5 -19zM109 692q41 0 68 -28.5t27 -81.5v-82q0 -54 -27 -82t-68 -28q-42 0 -69 28.5t-27 81.5v82q0 52 27 81t69 29z" unicode="°" glyph-name="degree" horiz-adv-x="217"/>
<glyph d="M211 0h-202v41h202v-41zM128 378h83v-40h-83v-110h-38v110h-81v40h81v108h38v-108z" unicode="±" glyph-name="plusminus" horiz-adv-x="219"/>
<glyph d="M155 634l-107 -51v41l107 56v-46z" unicode="´" glyph-name="acute" horiz-adv-x="199"/>
<glyph d="M262 0h-39v685h39v-685zM192 0h-39v245q-127 13 -127 161v117q0 81 39.5 121.5t109.5 40.5h17v-685z" unicode="¶" glyph-name="paragraph" horiz-adv-x="300"/>
<glyph d="M55 258h-41v53h41v-53z" unicode="·" glyph-name="periodcentered" horiz-adv-x="69"/>
<glyph d="M90 -206q-26 0 -43.5 20t-16.5 55h29q1 -43 32 -43q12 0 20.5 12.5t8.5 31.5q0 43 -35 43h-28l32 96h31l-23 -65q56 -4 56 -74q0 -32 -18 -54t-45 -22z" unicode="¸" glyph-name="cedilla" horiz-adv-x="199"/>
<glyph d="M108 386q23 0 37.5 16t14.5 46v152q0 29 -14.5 45.5t-37.5 16.5q-24 0 -39.5 -16.5t-15.5 -45.5v-152q0 -30 15.5 -46t39.5 -16zM107 688q35 0 57.5 -23.5t22.5 -67.5v-145q0 -46 -22.5 -69.5t-57.5 -23.5t-58 24t-23 69v145q0 43 23 67t58 24z" unicode="º" glyph-name="ordmasculine" horiz-adv-x="213"/>
<glyph d="M157 286l-66 203h40l65 -203l-65 -202h-40zM78 286l-66 203h40l66 -203l-66 -202h-40z" unicode="»" glyph-name="guillemotright" horiz-adv-x="208"/>
<glyph d="M191 118h62v177zM286 118h23v-31h-23v-87h-33v87h-94v31l93 256h34v-256zM61 311h-34v342h-23v32h57v-374zM71 0h-37l162 685h37z" unicode="¼" glyph-name="onequarter" horiz-adv-x="316"/>
<glyph d="M329 0h-135v30l73 154q29 64 29 105q0 57 -36 57q-38 0 -38 -65v-8h-33v8q0 96 72 96q30 0 49 -22.5t19 -65.5q0 -47 -36 -125l-63 -133h99v-31zM61 311h-34v342h-23v32h57v-374zM71 0h-37l162 685h37z" unicode="½" glyph-name="onehalf" horiz-adv-x="343"/>
<glyph d="M263 118h62v177zM358 118h23v-31h-23v-87h-33v87h-94v31l93 256h34v-256zM83 308q-74 0 -74 95v11h33v-11q0 -64 41 -64q18 0 28.5 13.5t10.5 38.5v77q0 25 -11 38.5t-28 13.5q-19 0 -29 -16l-22 18l71 133h-89v30h129v-25l-59 -110h3h5q28 0 45 -22.5t17 -62.5v-71 q0 -42 -20 -64t-51 -22zM143 0h-37l162 685h37z" unicode="¾" glyph-name="threequarters" horiz-adv-x="388"/>
<glyph d="M135 -7q-51 0 -83.5 36.5t-32.5 106.5v111q0 63 28.5 99.5t75.5 43.5v122h40v-162h-22q-36 0 -58 -25t-22 -72v-122q0 -45 20 -71t54 -26q79 0 79 101v24h42v-24q0 -73 -34 -107.5t-87 -34.5zM123 685h40v-53h-40v53z" unicode="¿" glyph-name="questiondown" horiz-adv-x="267"/>
<glyph d="M278 0l-34 179h-156l-34 -179h-44l134 685h45l134 -685h-45zM236 222l-70 371l-70 -371h140zM217 810v-41l-107 51v46z" unicode="À" glyph-name="Agrave" horiz-adv-x="333"/>
<glyph d="M278 0l-34 179h-156l-34 -179h-44l134 685h45l134 -685h-45zM236 222l-70 371l-70 -371h140zM222 820l-107 -51v41l107 56v-46z" unicode="Á" glyph-name="Aacute" horiz-adv-x="333"/>
<glyph d="M278 0l-34 179h-156l-34 -179h-44l134 685h45l134 -685h-45zM236 222l-70 371l-70 -371h140zM236 813v-41l-69 47l-69 -47v41l69 53z" unicode="Â" glyph-name="Acircumflex" horiz-adv-x="333"/>
<glyph d="M278 0l-34 179h-156l-34 -179h-44l134 685h45l134 -685h-45zM236 222l-70 371l-70 -371h140zM200 777q-15 0 -37 12t-33 12q-20 0 -37 -24v39q17 25 42 25q15 0 37 -12t33 -12q20 0 37 23v-38q-16 -25 -42 -25z" unicode="Ã" glyph-name="Atilde" horiz-adv-x="333"/>
<glyph d="M278 0l-34 179h-156l-34 -179h-44l134 685h45l134 -685h-45zM236 222l-70 371l-70 -371h140zM148 824h-40v47h40v-47zM226 824h-39v47h39v-47z" unicode="Ä" glyph-name="Adieresis" horiz-adv-x="333"/>
<glyph d="M278 0l-34 179h-156l-34 -179h-44l134 685h45l134 -685h-45zM236 222l-70 371l-70 -371h140zM167 879q-17 0 -28 -12.5t-11 -30.5q0 -20 11 -32.5t28 -12.5t28 12.5t11 32.5q0 18 -11 30.5t-28 12.5zM167 905q28 0 47 -20t19 -49q0 -30 -19 -50.5t-47 -20.5t-47 20.5 t-19 50.5q0 29 19 49t47 20z" unicode="Å" glyph-name="Aring" horiz-adv-x="333"/>
<glyph d="M273 0l-34 179h-156l-34 -179h-44l134 685h288v-43h-232l51 -274h168v-43h-160l53 -282h128v-43h-162zM231 222l-70 367l-70 -367h140z" unicode="Æ" glyph-name="AE" horiz-adv-x="443"/>
<glyph d="M176 -206q-26 0 -43.5 20t-16.5 55h29q1 -43 32 -43q12 0 20.5 12.5t8.5 31.5q0 43 -35 43h-28l27 81q-65 2 -104.5 47t-39.5 129v349q0 84 41 128.5t107 44.5t105 -44t39 -129v-66h-44v61q0 68 -27 101.5t-72 33.5q-48 0 -76.5 -33.5t-28.5 -101.5v-340 q0 -68 28.5 -102.5t74.5 -34.5t73.5 34.5t27.5 102.5v47h44v-51q0 -75 -32 -120t-84 -54l-19 -52q56 -4 56 -74q0 -32 -18 -54t-45 -22z" unicode="Ç" glyph-name="Ccedilla" horiz-adv-x="343"/>
<glyph d="M38 0v685h234v-43h-190v-274h177v-43h-177v-282h198v-43h-242zM209 810v-41l-107 51v46z" unicode="È" glyph-name="Egrave" horiz-adv-x="288"/>
<glyph d="M38 0v685h234v-43h-190v-274h177v-43h-177v-282h198v-43h-242zM214 820l-107 -51v41l107 56v-46z" unicode="É" glyph-name="Eacute" horiz-adv-x="288"/>
<glyph d="M38 0v685h234v-43h-190v-274h177v-43h-177v-282h198v-43h-242zM228 813v-41l-69 47l-69 -47v41l69 53z" unicode="Ê" glyph-name="Ecircumflex" horiz-adv-x="288"/>
<glyph d="M38 0v685h234v-43h-190v-274h177v-43h-177v-282h198v-43h-242zM140 824h-40v47h40v-47zM218 824h-39v47h39v-47z" unicode="Ë" glyph-name="Edieresis" horiz-adv-x="288"/>
<glyph d="M82 0h-44v685h44v-685zM110 810v-41l-107 51v46z" unicode="Ì" glyph-name="Igrave" horiz-adv-x="120"/>
<glyph d="M82 0h-44v685h44v-685zM115 820l-107 -51v41l107 56v-46z" unicode="Í" glyph-name="Iacute" horiz-adv-x="120"/>
<glyph d="M82 0h-44v685h44v-685zM129 813v-41l-69 47l-69 -47v41l69 53z" unicode="Î" glyph-name="Icircumflex" horiz-adv-x="120"/>
<glyph d="M82 0h-44v685h44v-685zM41 824h-40v47h40v-47zM119 824h-39v47h39v-47z" unicode="Ï" glyph-name="Idieresis" horiz-adv-x="120"/>
<glyph d="M139 314h-57v-271h76q53 0 85.5 34t32.5 101v331q0 67 -32 100t-84 33h-78v-286h57v-42zM38 0v314h-43v42h43v329h121q73 0 117 -44t44 -128v-338q0 -86 -44 -130.5t-117 -44.5h-121z" unicode="Ð" glyph-name="Eth" horiz-adv-x="346"/>
<glyph d="M275 0l-196 572v-572h-41v685h47l188 -557v557h41v-685h-39zM210 777q-15 0 -37 12t-33 12q-20 0 -37 -24v39q17 25 42 25q15 0 37 -12t33 -12q20 0 37 23v-38q-16 -25 -42 -25z" unicode="Ñ" glyph-name="Ntilde" horiz-adv-x="354"/>
<glyph d="M178 37q49 0 79.5 36t30.5 106v330q0 70 -29.5 105t-78.5 35q-50 0 -80 -34.5t-30 -105.5v-330q0 -71 30 -106.5t78 -35.5zM179 -6q-69 0 -111 46.5t-42 134.5v339q0 86 42 132t111 46q68 0 110.5 -46t42.5 -132v-339q0 -88 -42.5 -134.5t-110.5 -46.5zM230 810v-41 l-107 51v46z" unicode="Ò" glyph-name="Ograve" horiz-adv-x="359"/>
<glyph d="M178 37q49 0 79.5 36t30.5 106v330q0 70 -29.5 105t-78.5 35q-50 0 -80 -34.5t-30 -105.5v-330q0 -71 30 -106.5t78 -35.5zM179 -6q-69 0 -111 46.5t-42 134.5v339q0 86 42 132t111 46q68 0 110.5 -46t42.5 -132v-339q0 -88 -42.5 -134.5t-110.5 -46.5zM235 820l-107 -51 v41l107 56v-46z" unicode="Ó" glyph-name="Oacute" horiz-adv-x="359"/>
<glyph d="M178 37q49 0 79.5 36t30.5 106v330q0 70 -29.5 105t-78.5 35q-50 0 -80 -34.5t-30 -105.5v-330q0 -71 30 -106.5t78 -35.5zM179 -6q-69 0 -111 46.5t-42 134.5v339q0 86 42 132t111 46q68 0 110.5 -46t42.5 -132v-339q0 -88 -42.5 -134.5t-110.5 -46.5zM249 813v-41 l-69 47l-69 -47v41l69 53z" unicode="Ô" glyph-name="Ocircumflex" horiz-adv-x="359"/>
<glyph d="M178 37q49 0 79.5 36t30.5 106v330q0 70 -29.5 105t-78.5 35q-50 0 -80 -34.5t-30 -105.5v-330q0 -71 30 -106.5t78 -35.5zM179 -6q-69 0 -111 46.5t-42 134.5v339q0 86 42 132t111 46q68 0 110.5 -46t42.5 -132v-339q0 -88 -42.5 -134.5t-110.5 -46.5zM213 777 q-15 0 -37 12t-33 12q-20 0 -37 -24v39q17 25 42 25q15 0 37 -12t33 -12q20 0 37 23v-38q-16 -25 -42 -25z" unicode="Õ" glyph-name="Otilde" horiz-adv-x="359"/>
<glyph d="M178 37q49 0 79.5 36t30.5 106v330q0 70 -29.5 105t-78.5 35q-50 0 -80 -34.5t-30 -105.5v-330q0 -71 30 -106.5t78 -35.5zM179 -6q-69 0 -111 46.5t-42 134.5v339q0 86 42 132t111 46q68 0 110.5 -46t42.5 -132v-339q0 -88 -42.5 -134.5t-110.5 -46.5zM161 824h-40v47 h40v-47zM239 824h-39v47h39v-47z" unicode="Ö" glyph-name="Odieresis" horiz-adv-x="359"/>
<glyph d="M174 150l-56 89l-57 -89l-32 22l66 103l-66 103l32 22l57 -89l56 89l32 -22l-66 -103l66 -103z" unicode="×" glyph-name="multiply" horiz-adv-x="235"/>
<glyph d="M179 -6q-51 0 -86 25l-21 -59h-42l31 89q-35 48 -35 126v339q0 86 42 132t111 46q56 0 96 -32l23 64h43l-35 -100q26 -46 26 -110v-339q0 -88 -42.5 -134.5t-110.5 -46.5zM178 37q49 0 79.5 36t30.5 106v330q0 27 -5 50l-175 -496q27 -26 70 -26zM70 179q0 -42 11 -73 l178 507q-27 36 -79 36q-50 0 -80 -34.5t-30 -105.5v-330z" unicode="Ø" glyph-name="Oslash" horiz-adv-x="359"/>
<glyph d="M77 685v-510q0 -70 28.5 -104.5t75.5 -34.5q48 0 77 34.5t29 104.5v510h44v-509q0 -90 -42.5 -136.5t-107.5 -46.5t-106.5 46.5t-41.5 136.5v509h44zM232 810v-41l-107 51v46z" unicode="Ù" glyph-name="Ugrave" horiz-adv-x="364"/>
<glyph d="M77 685v-510q0 -70 28.5 -104.5t75.5 -34.5q48 0 77 34.5t29 104.5v510h44v-509q0 -90 -42.5 -136.5t-107.5 -46.5t-106.5 46.5t-41.5 136.5v509h44zM237 820l-107 -51v41l107 56v-46z" unicode="Ú" glyph-name="Uacute" horiz-adv-x="364"/>
<glyph d="M77 685v-510q0 -70 28.5 -104.5t75.5 -34.5q48 0 77 34.5t29 104.5v510h44v-509q0 -90 -42.5 -136.5t-107.5 -46.5t-106.5 46.5t-41.5 136.5v509h44zM251 813v-41l-69 47l-69 -47v41l69 53z" unicode="Û" glyph-name="Ucircumflex" horiz-adv-x="364"/>
<glyph d="M77 685v-510q0 -70 28.5 -104.5t75.5 -34.5q48 0 77 34.5t29 104.5v510h44v-509q0 -90 -42.5 -136.5t-107.5 -46.5t-106.5 46.5t-41.5 136.5v509h44zM163 824h-40v47h40v-47zM241 824h-39v47h39v-47z" unicode="Ü" glyph-name="Udieresis" horiz-adv-x="364"/>
<glyph d="M194 0h-44v306l-137 379h45l114 -318l114 318h44l-136 -376v-309zM227 820l-107 -51v41l107 56v-46z" unicode="Ý" glyph-name="Yacute" horiz-adv-x="343"/>
<glyph d="M140 520h-58v-355h57q106 0 106 123v107q0 125 -105 125zM138 121h-56v-121h-44v685h44v-122h58q70 0 109.5 -40.5t39.5 -121.5v-118q0 -82 -39.5 -122t-111.5 -40z" unicode="Þ" glyph-name="Thorn" horiz-adv-x="307"/>
<glyph d="M77 569v-569h-42v569q0 61 28 92t73 31q48 0 76 -33t28 -97v-75q0 -95 -60 -126q74 -26 74 -134v-84q0 -70 -35 -106.5t-89 -36.5h-13v41h15q36 0 58 25t22 71v105q0 46 -22 69.5t-58 23.5h-19v41h5q36 0 58 25t22 71v96q0 41 -16.5 62t-45.5 21q-59 0 -59 -82z" unicode="ß" glyph-name="germandbls" horiz-adv-x="279"/>
<glyph d="M231 499h42v-499h-42v38q-26 -43 -89 -45q-56 1 -86.5 38.5t-30.5 95.5v246q0 59 30.5 96t86.5 37q62 0 89 -44v37zM148 34q40 0 61.5 29.5t21.5 84.5v204q0 55 -21.5 84.5t-61.5 29.5q-81 0 -81 -102v-228q0 -47 20.5 -74.5t60.5 -27.5zM192 624v-41l-107 51v46z" unicode="à" glyph-name="agrave"/>
<glyph d="M231 499h42v-499h-42v38q-26 -43 -89 -45q-56 1 -86.5 38.5t-30.5 95.5v246q0 59 30.5 96t86.5 37q62 0 89 -44v37zM148 34q40 0 61.5 29.5t21.5 84.5v204q0 55 -21.5 84.5t-61.5 29.5q-81 0 -81 -102v-228q0 -47 20.5 -74.5t60.5 -27.5zM197 634l-107 -51v41l107 56v-46 z" unicode="á" glyph-name="aacute"/>
<glyph d="M231 499h42v-499h-42v38q-26 -43 -89 -45q-56 1 -86.5 38.5t-30.5 95.5v246q0 59 30.5 96t86.5 37q62 0 89 -44v37zM148 34q40 0 61.5 29.5t21.5 84.5v204q0 55 -21.5 84.5t-61.5 29.5q-81 0 -81 -102v-228q0 -47 20.5 -74.5t60.5 -27.5zM211 627v-41l-69 47l-69 -47v41 l69 53z" unicode="â" glyph-name="acircumflex"/>
<glyph d="M231 499h42v-499h-42v38q-26 -43 -89 -45q-56 1 -86.5 38.5t-30.5 95.5v246q0 59 30.5 96t86.5 37q62 0 89 -44v37zM148 34q40 0 61.5 29.5t21.5 84.5v204q0 55 -21.5 84.5t-61.5 29.5q-81 0 -81 -102v-228q0 -47 20.5 -74.5t60.5 -27.5zM175 591q-15 0 -37 12t-33 12 q-20 0 -37 -24v39q17 25 42 25q15 0 37 -12t33 -12q20 0 37 23v-38q-16 -25 -42 -25z" unicode="ã" glyph-name="atilde"/>
<glyph d="M231 499h42v-499h-42v38q-26 -43 -89 -45q-56 1 -86.5 38.5t-30.5 95.5v246q0 59 30.5 96t86.5 37q62 0 89 -44v37zM148 34q40 0 61.5 29.5t21.5 84.5v204q0 55 -21.5 84.5t-61.5 29.5q-81 0 -81 -102v-228q0 -47 20.5 -74.5t60.5 -27.5zM123 638h-40v47h40v-47zM201 638 h-39v47h39v-47z" unicode="ä" glyph-name="adieresis"/>
<glyph d="M231 499h42v-499h-42v38q-26 -43 -89 -45q-56 1 -86.5 38.5t-30.5 95.5v246q0 59 30.5 96t86.5 37q62 0 89 -44v37zM148 34q40 0 61.5 29.5t21.5 84.5v204q0 55 -21.5 84.5t-61.5 29.5q-81 0 -81 -102v-228q0 -47 20.5 -74.5t60.5 -27.5zM142 693q-17 0 -28 -12.5 t-11 -30.5q0 -20 11 -32.5t28 -12.5t28 12.5t11 32.5q0 18 -11 30.5t-28 12.5zM142 719q28 0 47 -20t19 -49q0 -30 -19 -50.5t-47 -20.5t-47 20.5t-19 50.5q0 29 19 49t47 20z" unicode="å" glyph-name="aring"/>
<glyph d="M231 38q-26 -43 -89 -45q-56 1 -86.5 38.5t-30.5 95.5v246q0 59 30.5 96t86.5 37q62 0 89 -44v37h42v-30q25 37 78 37q52 0 86 -37t34 -107v-112h-198v-116q0 -47 22.5 -72t57.5 -25t55.5 22.5t20.5 67.5v38h42v-32q0 -68 -33.5 -102.5t-86.5 -34.5q-52 0 -78 38v-34h-42 v38zM273 367v-76h156v76q0 47 -22 73t-57 26q-34 0 -55.5 -26t-21.5 -73zM148 34q83 2 83 114v204q0 55 -21.5 84.5t-61.5 29.5q-81 0 -81 -107v-218q0 -106 81 -107z" unicode="æ" glyph-name="ae" horiz-adv-x="490"/>
<glyph d="M142 -206q-26 0 -43.5 20t-16.5 55h29q1 -43 32 -43q12 0 20.5 12.5t8.5 31.5q0 43 -35 43h-28l28 83q-50 4 -81 39.5t-31 104.5v222q0 71 33.5 107.5t87.5 36.5t86.5 -36.5t32.5 -107.5v-54h-42v59q0 48 -21.5 73.5t-56.5 25.5t-56.5 -25.5t-21.5 -73.5v-233 q0 -47 22 -72t57 -25t56 25.5t21 74.5v46h42v-43q0 -64 -26.5 -100t-70.5 -42l-19 -54q56 -4 56 -74q0 -32 -18 -54t-45 -22z" unicode="ç" glyph-name="ccedilla" horiz-adv-x="284"/>
<glyph d="M67 367v-76h156v76q0 47 -22 73t-57 26q-34 0 -55.5 -26t-21.5 -73zM265 132q0 -67 -33.5 -101.5t-86.5 -34.5t-86.5 37.5t-33.5 106.5v222q0 70 33.5 107t86.5 37q52 0 86 -37t34 -107v-112h-198v-116q0 -47 22.5 -72t57.5 -25t55.5 22.5t20.5 67.5v38h42v-33zM195 624 v-41l-107 51v46z" unicode="è" glyph-name="egrave" horiz-adv-x="284"/>
<glyph d="M67 367v-76h156v76q0 47 -22 73t-57 26q-34 0 -55.5 -26t-21.5 -73zM265 132q0 -67 -33.5 -101.5t-86.5 -34.5t-86.5 37.5t-33.5 106.5v222q0 70 33.5 107t86.5 37q52 0 86 -37t34 -107v-112h-198v-116q0 -47 22.5 -72t57.5 -25t55.5 22.5t20.5 67.5v38h42v-33zM200 634 l-107 -51v41l107 56v-46z" unicode="é" glyph-name="eacute" horiz-adv-x="284"/>
<glyph d="M67 367v-76h156v76q0 47 -22 73t-57 26q-34 0 -55.5 -26t-21.5 -73zM265 132q0 -67 -33.5 -101.5t-86.5 -34.5t-86.5 37.5t-33.5 106.5v222q0 70 33.5 107t86.5 37q52 0 86 -37t34 -107v-112h-198v-116q0 -47 22.5 -72t57.5 -25t55.5 22.5t20.5 67.5v38h42v-33zM214 627 v-41l-69 47l-69 -47v41l69 53z" unicode="ê" glyph-name="ecircumflex" horiz-adv-x="284"/>
<glyph d="M67 367v-76h156v76q0 47 -22 73t-57 26q-34 0 -55.5 -26t-21.5 -73zM265 132q0 -67 -33.5 -101.5t-86.5 -34.5t-86.5 37.5t-33.5 106.5v222q0 70 33.5 107t86.5 37q52 0 86 -37t34 -107v-112h-198v-116q0 -47 22.5 -72t57.5 -25t55.5 22.5t20.5 67.5v38h42v-33zM126 638 h-40v47h40v-47zM204 638h-39v47h39v-47z" unicode="ë" glyph-name="edieresis" horiz-adv-x="284"/>
<glyph d="M77 -1h-42v500h42v-500zM106 624v-41l-107 51v46z" unicode="ì" glyph-name="igrave" horiz-adv-x="112"/>
<glyph d="M77 -1h-42v500h42v-500zM111 634l-107 -51v41l107 56v-46z" unicode="í" glyph-name="iacute" horiz-adv-x="112"/>
<glyph d="M77 -1h-42v500h42v-500zM125 627v-41l-69 47l-69 -47v41l69 53z" unicode="î" glyph-name="icircumflex" horiz-adv-x="112"/>
<glyph d="M77 -1h-42v500h42v-500zM37 638h-40v47h40v-47zM115 638h-39v47h39v-47z" unicode="ï" glyph-name="idieresis" horiz-adv-x="112"/>
<glyph d="M152 37q36 0 58 25t22 72v235q0 46 -22 71.5t-58 25.5q-37 0 -61 -25.5t-24 -71.5v-235q0 -47 23.5 -72t61.5 -25zM150 -4q-55 0 -90 37t-35 107v224q0 68 35 105t90 37q38 0 61 -15l-28 84l-55 -25v40l43 19l-26 76h39l20 -61l54 24v-39l-42 -19l41 -123q17 -49 17 -105 v-222q0 -71 -35 -107.5t-89 -36.5z" unicode="ð" glyph-name="eth" horiz-adv-x="299"/>
<glyph d="M241 0v359q0 107 -79 107q-39 0 -62 -29t-23 -81v-356h-42v499h42v-39q29 46 91 46q56 0 85.5 -38t29.5 -95v-373h-42zM191 591q-15 0 -37 12t-33 12q-20 0 -37 -24v39q17 25 42 25q15 0 37 -12t33 -12q20 0 37 23v-38q-16 -25 -42 -25z" unicode="ñ" glyph-name="ntilde" horiz-adv-x="315"/>
<glyph d="M152 37q36 0 58 25t22 72v235q0 46 -22 71.5t-58 25.5q-37 0 -61 -25.5t-24 -71.5v-235q0 -47 23.5 -72t61.5 -25zM150 506q54 0 89 -36.5t35 -105.5v-224q0 -71 -35 -107.5t-89 -36.5q-55 0 -90 37t-35 107v224q0 68 35 105t90 37zM200 624v-41l-107 51v46z" unicode="ò" glyph-name="ograve" horiz-adv-x="299"/>
<glyph d="M152 37q36 0 58 25t22 72v235q0 46 -22 71.5t-58 25.5q-37 0 -61 -25.5t-24 -71.5v-235q0 -47 23.5 -72t61.5 -25zM150 506q54 0 89 -36.5t35 -105.5v-224q0 -71 -35 -107.5t-89 -36.5q-55 0 -90 37t-35 107v224q0 68 35 105t90 37zM205 634l-107 -51v41l107 56v-46z" unicode="ó" glyph-name="oacute" horiz-adv-x="299"/>
<glyph d="M152 37q36 0 58 25t22 72v235q0 46 -22 71.5t-58 25.5q-37 0 -61 -25.5t-24 -71.5v-235q0 -47 23.5 -72t61.5 -25zM150 506q54 0 89 -36.5t35 -105.5v-224q0 -71 -35 -107.5t-89 -36.5q-55 0 -90 37t-35 107v224q0 68 35 105t90 37zM219 627v-41l-69 47l-69 -47v41l69 53 z" unicode="ô" glyph-name="ocircumflex" horiz-adv-x="299"/>
<glyph d="M152 37q36 0 58 25t22 72v235q0 46 -22 71.5t-58 25.5q-37 0 -61 -25.5t-24 -71.5v-235q0 -47 23.5 -72t61.5 -25zM150 506q54 0 89 -36.5t35 -105.5v-224q0 -71 -35 -107.5t-89 -36.5q-55 0 -90 37t-35 107v224q0 68 35 105t90 37zM183 591q-15 0 -37 12t-33 12 q-20 0 -37 -24v39q17 25 42 25q15 0 37 -12t33 -12q20 0 37 23v-38q-16 -25 -42 -25z" unicode="õ" glyph-name="otilde" horiz-adv-x="299"/>
<glyph d="M152 37q36 0 58 25t22 72v235q0 46 -22 71.5t-58 25.5q-37 0 -61 -25.5t-24 -71.5v-235q0 -47 23.5 -72t61.5 -25zM150 506q54 0 89 -36.5t35 -105.5v-224q0 -71 -35 -107.5t-89 -36.5q-55 0 -90 37t-35 107v224q0 68 35 105t90 37zM131 638h-40v47h40v-47zM209 638h-39 v47h39v-47z" unicode="ö" glyph-name="odieresis" horiz-adv-x="299"/>
<glyph d="M129 91h-40v54h40v-54zM211 266h-202v40h202v-40zM129 421h-40v53h40v-53z" unicode="÷" glyph-name="divide" horiz-adv-x="219"/>
<glyph d="M150 -4q-37 0 -65 16l-18 -52h-38l27 78q-31 38 -31 102v224q0 68 35 105t90 37q36 0 64 -16l17 50h38l-26 -75q31 -38 31 -101v-224q0 -71 -35 -107.5t-89 -36.5zM152 37q36 0 58 25t22 72v235q0 27 -7 45l-125 -360q22 -17 52 -17zM67 134q0 -23 7 -44l126 360 q-19 16 -48 16q-37 0 -61 -25.5t-24 -71.5v-235z" unicode="ø" glyph-name="oslash" horiz-adv-x="299"/>
<glyph d="M77 499v-358q0 -107 79 -107q40 0 62.5 28.5t22.5 81.5v355h42v-499h-42v39q-29 -46 -91 -46q-56 0 -85.5 38t-29.5 95v373h42zM212 624v-41l-107 51v46z" unicode="ù" glyph-name="ugrave" horiz-adv-x="324"/>
<glyph d="M77 499v-358q0 -107 79 -107q40 0 62.5 28.5t22.5 81.5v355h42v-499h-42v39q-29 -46 -91 -46q-56 0 -85.5 38t-29.5 95v373h42zM217 634l-107 -51v41l107 56v-46z" unicode="ú" glyph-name="uacute" horiz-adv-x="324"/>
<glyph d="M77 499v-358q0 -107 79 -107q40 0 62.5 28.5t22.5 81.5v355h42v-499h-42v39q-29 -46 -91 -46q-56 0 -85.5 38t-29.5 95v373h42zM231 627v-41l-69 47l-69 -47v41l69 53z" unicode="û" glyph-name="ucircumflex" horiz-adv-x="324"/>
<glyph d="M77 499v-358q0 -107 79 -107q40 0 62.5 28.5t22.5 81.5v355h42v-499h-42v39q-29 -46 -91 -46q-56 0 -85.5 38t-29.5 95v373h42zM143 638h-40v47h40v-47zM221 638h-39v47h39v-47z" unicode="ü" glyph-name="udieresis" horiz-adv-x="324"/>
<glyph d="M289 499l-118 -514q-21 -93 -49 -125.5t-75 -32.5h-24v42h25q30 0 50.5 28.5t34.5 109.5l-125 492h43l104 -416l92 416h42zM209 634l-107 -51v41l107 56v-46z" unicode="ý" glyph-name="yacute" horiz-adv-x="297"/>
<glyph d="M77 685v-223q27 42 89 44q56 -1 86.5 -38t30.5 -95v-246q0 -59 -30.5 -96.5t-86.5 -37.5q-63 0 -89 45v-210h-42v857h42zM160 34q81 0 81 107v218q0 106 -81 107q-40 -1 -61.5 -30.5t-21.5 -84.5v-204q0 -55 21.5 -84t61.5 -29z" unicode="þ" glyph-name="thorn"/>
</font>
</defs>
</svg>
